# xmcd CD database file
#
# Track frame offsets:
#	150
#	20888
#	33839
#	45463
#	54810
#	66341
#	75150
#	85156
#	96916
#	107164
#	120745
#	133217
#	147269
#	158180
#	172322
#	186793
#
# Disc length: 2659 seconds
#
# Revision: 0
# Processed by: cddbd v1.4PL0 Copyright (c) Steve Scherf et al.
# Submitted via: Feurio! 1.63 - http://www.feurio.com
#
DISCID=d80a6110
DTITLE=Various Artist - Songs Of The West - CD3
DYEAR=1900
DGENRE=country
TTITLE0=Gram Parsons - Love Hurts
TTITLE1=Ray Griff - My Rocky Mountain Home
TTITLE2=Patsy Cline - I've Loved And Lost Again
TTITLE3=Faron Young - I Can't Help It If I'm Still In Love With You
TTITLE4=George Jones - I Can't Change Over Night
TTITLE5=Waylon Jennings - Love's Gonna Live Here
TTITLE6=Conway Twitty - Where I Stand
TTITLE7=Dave Dudley - Yellow Rose Of Texas
TTITLE8=Susan Raye - Put A Little Love In Your Heart
TTITLE9=Merle Haggard - Games People Play
TTITLE10=Bobby Helms - Fraulein
TTITLE11=Roger Miller - My Elusive Dreams
TTITLE12=Hank Locklin - Send Me The Pillow That You Dream On
TTITLE13=George Jones - Good Year For The Roses
TTITLE14=Bobby Bare - Leaving On A Jet Plane
TTITLE15=Oakridge Boys - You'll Never Walk Alone
EXTD=
EXTT0=w. Emmylou Harris
EXTT1=
EXTT2=
EXTT3=
EXTT4=
EXTT5=
EXTT6=
EXTT7=
EXTT8=
EXTT9=
EXTT10=
EXTT11=
EXTT12=
EXTT13=
EXTT14=
EXTT15=
PLAYORDER=
